<?xml version="1.0" encoding="UTF-8"?>
<svg id="Layer_1" data-name="Layer 1" xmlns="http://www.w3.org/2000/svg" version="1.1" viewBox="0 0 409.47 319.37">
  <defs>
    <style>
      .cls-1 {
        fill: #0097db;
      }

      .cls-1, .cls-2 {
        stroke-width: 0px;
      }

      .cls-2 {
        fill: #0d2a50;
      }
    </style>
  </defs>
  <g>
    <circle class="cls-1" cx="207.09" cy="70.68" r="70.69"/>
    <path class="cls-1" d="M259.22,127.89c-13.47,14.6-37.22,29.2-67.69,29.2-23.64,0-44-9.19-56.95-19.4C57.4,145.79,0,157.27,0,157.27v31.25l409.45-.04v-64.44s-70.15-.43-150.22,3.85h-.01Z"/>
  </g>
  <g>
    <path class="cls-2" d="M48.64,279.9v38.08H0v-101.31h48.64v45.59h.28l28.63-45.59h58.32l-42.71,52.36,40.3,48.95h-55.66l-28.83-38.08h-.33,0Z"/>
    <path class="cls-2" d="M409.47,313.8c-11.48,3.51-26.56,5.58-40.06,5.58-48.12,0-83.46-13.68-83.46-53.46,0-35.95,34.24-51.57,81.06-51.57,13.01,0,29.54,1.44,42.46,5.56l-.02,34.82c-9.58-5.8-19.16-9.42-32.88-9.42-17.86,0-35.7,8.79-35.7,21.56s17.77,21.56,35.7,21.56c13.5,0,23.3-3.74,32.88-9.27l.02,34.65h0Z"/>
    <path class="cls-2" d="M143.84,216.67h98.33c25.54,0,33.91,9.93,33.91,25.4,0,17.31-15.47,24.83-31.36,25.68v.28c16.32,1.28,32.21,3.12,32.21,23.55,0,13.34-8.37,26.39-36.46,26.39h-96.63v-101.31h0ZM192.48,297.39h25.36c9.51,0,12.74-3.94,12.74-9.75s-3.27-9.99-12.63-9.99h-25.47v19.75h0ZM192.48,259.61h24.23c9.36,0,13.03-3.79,13.03-9.61,0-6.67-3.7-10-12.35-10h-24.91v19.61h0Z"/>
  </g>
</svg>